USFL
nRows=264
nColumns=2
inDegrees=yes
endheader
time	tib_ant_r	
3.62601	 54.193591	
3.65927	 54.180481	
3.69254	 54.174726	
3.72581	 54.173646	
3.75907	 54.167317	
3.79234	 54.176474	
3.8256	 54.191137	
3.85887	 54.200950	
3.89214	 54.196378	
3.9254	 54.181506	
3.95867	 54.182861	
3.99194	 54.183781	
4.0252	 54.199706	
4.05847	 54.189317	
4.09173	 54.202869	
4.125	 54.233487	
4.15827	 54.236820	
4.19153	 54.256248	
4.2248	 54.249813	
4.25806	 54.250421	
4.29133	 54.245240	
4.3246	 54.235060	
4.35786	 54.236500	
4.39113	 54.238590	
4.4244	 54.241250	
4.45766	 54.238644	
4.49093	 54.233109	
4.52419	 54.244427	
4.55746	 54.236930	
4.59073	 54.223831	
4.62399	 54.220267	
4.65726	 54.190793	
4.69052	 54.201286	
4.72379	 54.179240	
4.75706	 54.194241	
4.79032	 54.145877	
4.82359	 54.189201	
4.85685	 54.125288	
4.89012	 53.936353	
4.92339	 53.500667	
4.95665	 53.470607	
4.98992	 53.158380	
5.02319	 52.943175	
5.05645	 52.939517	
5.08972	 52.698226	
5.12298	 52.467560	
5.15625	 52.283104	
5.18952	 51.808407	
5.22278	 51.635394	
5.25605	 51.301822	
5.28931	 51.016901	
5.32258	 50.803843	
5.35585	 50.186629	
5.38911	 49.717178	
5.42238	 48.194111	
5.45565	 47.927401	
5.48891	 47.745744	
5.52218	 47.311494	
5.55544	 47.069180	
5.58871	 46.989042	
5.62198	 46.788471	
5.65524	 46.473251	
5.68851	 46.346353	
5.72177	 46.192276	
5.75504	 46.021551	
5.78831	 45.889601	
5.82157	 45.798567	
5.85484	 45.744151	
5.8881	 45.641553	
5.92137	 45.619259	
5.95464	 45.475367	
5.9879	 45.416066	
6.02117	 45.330290	
6.05444	 45.382413	
6.0877	 45.604907	
6.12097	 45.794524	
6.15423	 46.143329	
6.1875	 46.424494	
6.22077	 46.383655	
6.25403	 46.492841	
6.2873	 46.554316	
6.32056	 46.525448	
6.35383	 46.518792	
6.3871	 46.500337	
6.42036	 46.443658	
6.45363	 46.438979	
6.4869	 46.458473	
6.52016	 46.449652	
6.55343	 46.327764	
6.58669	 46.340712	
6.61996	 46.240241	
6.65323	 46.094237	
6.68649	 45.966050	
6.71976	 45.886085	
6.75302	 45.856591	
6.78629	 45.875469	
6.81956	 45.899937	
6.85282	 45.902363	
6.88609	 45.778817	
6.91935	 45.697503	
6.95262	 45.751102	
6.98589	 45.785171	
7.01915	 45.781391	
7.05242	 45.754767	
7.08569	 45.782653	
7.11895	 45.763967	
7.15222	 45.757757	
7.18548	 45.806048	
7.21875	 45.839053	
7.25202	 45.873911	
7.28528	 45.899030	
7.31855	 45.839373	
7.35181	 45.823886	
7.38508	 45.800410	
7.41835	 45.838219	
7.45161	 45.839277	
7.48488	 45.807903	
7.51815	 45.813566	
7.55141	 45.769503	
7.58468	 45.745615	
7.61794	 45.775046	
7.65121	 45.772230	
7.68448	 45.799768	
7.71774	 45.708527	
7.75101	 45.619220	
7.78427	 45.557274	
7.81754	 45.561211	
7.85081	 45.586086	
7.88407	 45.581005	
7.91734	 45.535024	
7.9506	 45.454744	
7.98387	 45.416516	
8.01714	 45.406899	
8.0504	 45.379726	
8.08367	 45.419618	
8.11694	 45.436461	
8.1502	 45.458752	
8.18347	 45.472423	
8.21673	 45.455090	
8.25	 45.416663	
8.28327	 45.370115	
8.31653	 45.389392	
8.3498	 45.406475	
8.38306	 45.371202	
8.41633	 45.464319	
8.4496	 45.658370	
8.48286	 45.670449	
8.51613	 45.579636	
8.5494	 45.426041	
8.58266	 45.369491	
8.61593	 45.426294	
8.64919	 45.668178	
8.68246	 45.826856	
8.71573	 45.654789	
8.74899	 45.544811	
8.78226	 45.518681	
8.81552	 45.652303	
8.84879	 45.716259	
8.88206	 45.810478	
8.91532	 45.868370	
8.94859	 45.866624	
8.98185	 45.842921	
9.01512	 45.888479	
9.04839	 45.895394	
9.08165	 45.912215	
9.11492	 45.913990	
9.14819	 45.918988	
9.18145	 45.916394	
9.21472	 45.872165	
9.24798	 45.857463	
9.28125	 45.907585	
9.31452	 45.954510	
9.34778	 46.028839	
9.38105	 46.124211	
9.41431	 46.035376	
9.44758	 45.986165	
9.48085	 45.906311	
9.51411	 45.907397	
9.54738	 46.017635	
9.58065	 46.099963	
9.61391	 46.157346	
9.64718	 46.178153	
9.68044	 46.160919	
9.71371	 46.120021	
9.74698	 46.272843	
9.78024	 46.295341	
9.81351	 46.278162	
9.84677	 46.214829	
9.88004	 46.173269	
9.91331	 46.255737	
9.94657	 46.355379	
9.97984	 46.399737	
10.0131	 46.403364	
10.0464	 46.269189	
10.0796	 46.344750	
10.1129	 46.423901	
10.1462	 47.650411	
10.1794	 47.797485	
10.2127	 50.796073	
10.246	 50.935158	
10.2792	 53.635252	
10.3125	 55.294213	
10.3458	 55.428016	
10.379	 55.853539	
10.4123	 55.938049	
10.4456	 55.973157	
10.4788	 56.177243	
10.5121	 56.234226	
10.5454	 56.345188	
10.5786	 56.277116	
10.6119	 56.226057	
10.6452	 56.110738	
10.6784	 55.939936	
10.7117	 55.860191	
10.745	 55.839558	
10.7782	 55.846406	
10.8115	 55.798441	
10.8448	 55.792910	
10.878	 55.783479	
10.9113	 55.700364	
10.9446	 55.764264	
10.9778	 55.757225	
11.0111	 55.804619	
11.0444	 55.881003	
11.0776	 55.916680	
11.1109	 55.924687	
11.1442	 55.942783	
11.1774	 55.890484	
11.2107	 55.871796	
11.244	 55.874278	
11.2772	 55.821918	
11.3105	 55.803174	
11.3437	 55.831737	
11.377	 55.858337	
11.4103	 55.890815	
11.4435	 55.891208	
11.4768	 55.921348	
11.5101	 55.958522	
11.5433	 55.894654	
11.5766	 55.854818	
11.6099	 55.831688	
11.6431	 55.776857	
11.6764	 55.699216	
11.7097	 55.750119	
11.7429	 55.752399	
11.7762	 55.736703	
11.8095	 55.737669	
11.8427	 55.735200	
11.876	 55.777558	
11.9093	 55.745029	
11.9425	 55.716756	
11.9758	 55.739465	
12.0091	 55.630872	
12.0423	 55.615536	
12.0756	 55.616480	
12.1089	 55.562913	
12.1421	 55.571776	
12.1754	 55.563892	
12.2087	 55.585388	
12.2419	 55.617247	
12.2752	 55.613500	
12.3085	 55.642444	
12.3417	 55.618536	
12.375	 55.603662	
